<?xml version="1.0" standalone="no"?>
<!DOCTYPE svg PUBLIC "-//W3C//DTD SVG 20010904//EN"
 "http://www.w3.org/TR/2001/REC-SVG-20010904/DTD/svg10.dtd">
<svg version="1.0" xmlns="http://www.w3.org/2000/svg"
 width="700.000000pt" height="700.000000pt" viewBox="0 0 700.000000 700.000000"
 preserveAspectRatio="xMidYMid meet">
<metadata>
Created by potrace 1.11, written by Peter Selinger 2001-2013
</metadata>
<g transform="translate(0.000000,700.000000) scale(0.100000,-0.100000)"
fill="#000000" stroke="none">
<path d="M3209 6617 c-2 -3 -35 -7 -74 -11 -152 -13 -275 -34 -445 -76 -121
-30 -294 -83 -345 -105 -16 -8 -70 -30 -118 -49 -501 -205 -977 -582 -1318
-1046 -224 -305 -406 -697 -496 -1069 -32 -136 -35 -150 -53 -276 -5 -33 -12
-78 -15 -100 -4 -22 -8 -157 -10 -300 -4 -297 7 -429 60 -685 46 -222 144
-499 253 -716 374 -744 1043 -1315 1842 -1573 161 -52 367 -98 515 -117 22 -3
49 -7 60 -9 50 -10 224 -19 375 -19 246 0 374 13 623 59 447 84 944 315 1317
613 205 164 384 345 537 542 52 67 203 287 203 296 0 2 12 23 26 46 43 67 149
286 192 393 54 136 140 413 132 427 -1 2 3 16 9 31 10 26 13 40 26 120 3 17 8
39 10 47 6 22 24 172 32 265 12 156 7 444 -12 595 -14 115 -18 142 -39 245
-57 273 -130 486 -255 742 -384 786 -1121 1393 -1971 1624 -25 7 -49 14 -55
15 -54 15 -305 64 -355 69 -36 4 -74 9 -85 12 -25 6 -559 15 -566 10z m466
-620 c17 -3 59 -9 95 -12 36 -4 74 -9 85 -11 11 -2 34 -7 50 -9 112 -20 377
-96 450 -130 17 -7 59 -26 95 -41 407 -170 813 -511 1077 -904 162 -242 295
-555 354 -835 7 -33 13 -62 14 -65 1 -3 5 -32 9 -65 5 -33 10 -69 12 -80 17
-82 22 -343 11 -491 -17 -220 -97 -544 -168 -676 l-14 -26 -467 461 c-257 254
-597 591 -757 750 -159 158 -293 287 -298 287 -8 0 -285 -271 -933 -913 -204
-203 -375 -367 -380 -365 -5 2 -42 35 -82 73 -156 149 -401 381 -431 409 -18
16 -70 65 -115 109 l-84 79 -44 -43 c-194 -190 -549 -540 -747 -737 l-238
-237 -26 70 c-82 226 -131 395 -149 510 -3 22 -7 42 -9 45 -2 3 -6 33 -10 65
-4 33 -9 71 -12 85 -9 44 -11 403 -2 475 16 133 20 157 40 257 164 820 769
1518 1579 1822 132 49 339 102 475 121 22 4 47 8 55 10 8 2 53 7 100 11 47 3
86 7 88 9 5 4 346 -3 377 -8z"/>
</g>
</svg>
