<svg id="b16751d8-16da-4c5e-81c8-714c2a30def4" data-name="Layer 1" xmlns="http://www.w3.org/2000/svg" xmlns:xlink="http://www.w3.org/1999/xlink" viewBox="0 0 123.08 45.87"><defs><clipPath id="b0367900-03a9-4950-9138-39e1683b2348" transform="translate(-5 -6.23)"><rect x="5" y="7.21" width="38.25" height="38.25" fill="none"/></clipPath><clipPath id="b99aff6a-4910-45ab-a453-d78e7463fdb8" transform="translate(-5 -6.23)"><rect x="-95.59" y="-162.16" width="375" height="375" fill="none"/></clipPath></defs><title>ORB_logo</title><g clip-path="url(#b0367900-03a9-4950-9138-39e1683b2348)"><path d="M28.91,22.51l-8,8-4.4-4.2-6.31,6.31a17.05,17.05,0,0,1-1.34-6.31,15.3,15.3,0,0,1,30.6,0,13.77,13.77,0,0,1-1.14,5.54ZM24.12,7.21A19.13,19.13,0,1,0,43.25,26.34,19.19,19.19,0,0,0,24.12,7.21Z" transform="translate(-5 -6.23)"/></g><g clip-path="url(#b99aff6a-4910-45ab-a453-d78e7463fdb8)"><text transform="translate(42.18 34.83)" font-size="40.72" font-family="Roboto-Bold, Roboto" font-weight="700">O</text><text transform="translate(70.7 34.83)" font-size="40.72" font-family="Roboto-Bold, Roboto" font-weight="700">R</text><text transform="translate(97.1 34.83)" font-size="40.72" font-family="Roboto-Bold, Roboto" font-weight="700">B</text></g></svg>