<?xml version="1.0" encoding="utf-8"?>
<!-- Generator: Adobe Illustrator 23.0.1, SVG Export Plug-In . SVG Version: 6.00 Build 0)  -->
<svg version="1.1" id="Layer_1" xmlns="http://www.w3.org/2000/svg" xmlns:xlink="http://www.w3.org/1999/xlink" x="0px" y="0px"
	 viewBox="0 0 42.96 43.45" style="enable-background:new 0 0 42.96 43.45;" xml:space="preserve">
<style type="text/css">
	.st0{clip-path:url(#SVGID_2_);}
</style>
<g>
	<defs>
		<rect id="SVGID_1_" x="2" y="2.34" width="38.25" height="38.25"/>
	</defs>
	<clipPath id="SVGID_2_">
		<use xlink:href="#SVGID_1_"  style="overflow:visible;"/>
	</clipPath>
	<path class="st0" d="M25.91,17.64l-8.03,8.03l-4.4-4.21l-6.31,6.31c-0.76-1.91-1.34-4.02-1.34-6.31c0-8.41,6.89-15.3,15.3-15.3
		s15.3,6.88,15.3,15.3c0,1.91-0.38,3.83-1.15,5.55L25.91,17.64z M21.12,2.34C10.61,2.34,2,10.94,2,21.46
		c0,10.52,8.61,19.12,19.12,19.12s19.12-8.61,19.12-19.12C40.25,10.94,31.64,2.34,21.12,2.34z"/>
</g>
</svg>
